<svg xmlns="http://www.w3.org/2000/svg"  viewBox="0 0 50 50" width="50px" height="50px"><path d="M 45.529297 12.517578 L 40.423828 12.664062 L 41.867188 22.861328 L 49.400391 22.861328 C 49.634391 22.861328 49.838203 22.710375 49.908203 22.484375 C 49.978203 22.260375 49.897984 22.020812 49.708984 21.882812 L 47.390625 20.210938 L 44.060547 20.210938 L 43.892578 18.582031 L 46.222656 18.511719 C 46.555656 18.500719 46.833094 18.24125 46.871094 17.90625 L 46.955078 17.167969 L 46.746094 16.6875 C 46.606094 16.3655 46.293266 16.158203 45.947266 16.158203 L 45.931641 16.158203 L 43.466797 16.207031 L 43.246094 14.726562 L 45.699219 14.607422 C 46.019219 14.591422 46.279078 14.357109 46.330078 14.037109 L 46.433594 13.408203 L 46.214844 12.943359 C 46.089844 12.675359 45.814297 12.506578 45.529297 12.517578 z M 4.421875 12.652344 C 4.045875 12.652344 3.717625 12.924781 3.640625 13.300781 L 2.1875 20.402344 L 0.2734375 21.810547 C 0.0734375 21.956547 -0.010546875 22.214125 0.064453125 22.453125 C 0.13945312 22.695125 0.35646875 22.857422 0.60546875 22.857422 L 4.4023438 22.857422 L 5.3222656 16.724609 L 6.1933594 22.015625 C 6.2743594 22.504625 6.6849219 22.861328 7.1699219 22.861328 L 7.78125 22.861328 C 8.14725 22.861328 8.484625 22.641734 8.640625 22.302734 L 11.302734 16.537109 L 10.726562 22.859375 L 13.826172 22.859375 C 14.049172 22.859375 14.246078 22.724625 14.330078 22.515625 C 14.413078 22.310625 14.37075 22.076016 14.21875 21.916016 L 13.451172 21.113281 L 14.150391 13.398438 C 14.168391 13.209437 14.105469 13.019906 13.980469 12.878906 C 13.854469 12.734906 13.674375 12.652344 13.484375 12.652344 L 11.521484 12.652344 C 11.169484 12.652344 10.850453 12.850875 10.689453 13.171875 L 8.1914062 18.119141 L 7.2226562 13.361328 C 7.1386563 12.950328 6.7801406 12.652344 6.3691406 12.652344 L 4.421875 12.652344 z M 35.556641 12.742188 C 35.363641 12.742188 35.178875 12.829516 35.046875 12.978516 C 34.921875 13.124516 34.856141 13.318672 34.869141 13.513672 L 35.496094 22.214844 C 35.522094 22.577844 35.814109 22.859375 36.162109 22.859375 L 40.849609 22.859375 C 41.035609 22.859375 41.212984 22.777813 41.333984 22.632812 C 41.452984 22.493813 41.511141 22.307141 41.494141 22.119141 L 41.367188 20.816406 C 41.329188 20.420406 41.013859 20.121094 40.630859 20.121094 L 37.849609 20.121094 L 37.304688 13.402344 C 37.274687 13.025344 36.977234 12.742188 36.615234 12.742188 L 35.556641 12.742188 z M 31.689453 12.744141 C 31.486453 12.744141 31.296313 12.856063 31.195312 13.039062 C 31.098312 13.215063 31.098359 13.435328 31.193359 13.611328 L 31.695312 14.544922 L 32.025391 21.009766 L 31.570312 22.007812 C 31.486313 22.191813 31.496609 22.403172 31.599609 22.576172 C 31.706609 22.754172 31.892703 22.859375 32.095703 22.859375 L 34.669922 22.859375 C 34.882922 22.859375 35.078922 22.731203 35.169922 22.533203 C 35.259922 22.338203 35.233469 22.111406 35.105469 21.941406 L 34.484375 21.115234 L 34.199219 14.519531 L 34.556641 13.623047 C 34.633641 13.430047 34.614906 13.208203 34.503906 13.033203 C 34.388906 12.852203 34.195328 12.744141 33.986328 12.744141 L 31.689453 12.744141 z M 24.902344 12.832031 C 24.675344 12.832031 24.454969 12.927797 24.292969 13.091797 C 24.130969 13.256797 24.042969 13.474031 24.042969 13.707031 L 24.042969 22.039062 C 24.042969 22.254062 24.127391 22.465187 24.275391 22.617188 C 24.427391 22.774187 24.631609 22.859375 24.849609 22.859375 L 28.783203 22.859375 C 30.848203 22.823375 31.448219 20.902484 31.449219 20.896484 C 31.712219 20.180484 31.520766 19.167375 31.509766 19.109375 C 31.322766 18.114375 30.442406 17.556297 29.816406 17.279297 C 30.608406 16.832297 30.832172 16.113672 30.826172 15.763672 C 30.863172 15.527672 30.862172 15.26575 30.826172 14.96875 C 30.687172 13.50075 29.090656 12.845031 28.472656 12.832031 L 24.902344 12.832031 z M 19.306641 12.853516 C 18.013641 12.743516 16.756766 13.146281 15.759766 13.988281 C 14.732766 14.854281 14.104234 16.076687 13.990234 17.429688 C 13.759234 20.182688 15.770703 22.61175 18.470703 22.84375 C 18.610703 22.85575 18.749672 22.861328 18.888672 22.861328 C 20.030672 22.861328 21.127578 22.459984 22.017578 21.708984 C 23.044578 20.842984 23.672156 19.620578 23.785156 18.267578 C 24.015156 15.513578 22.006641 13.084516 19.306641 12.853516 z M 27.691406 14.626953 C 27.840406 14.733953 28.248281 15.068969 28.238281 15.542969 C 28.243281 15.662969 28.218109 16.015984 28.037109 16.208984 C 27.947109 16.305984 27.823969 16.353469 27.667969 16.355469 L 26.617188 16.355469 L 26.617188 14.644531 L 27.691406 14.626953 z M 19.119141 14.902344 C 19.208141 14.902344 19.297719 14.911781 19.386719 14.925781 C 20.586719 15.122781 21.350844 16.604563 21.089844 18.226562 C 20.941844 19.153562 20.467219 19.984266 19.824219 20.447266 C 19.387219 20.763266 18.909359 20.887547 18.443359 20.810547 C 17.243359 20.614547 16.477281 19.132766 16.738281 17.509766 C 16.886281 16.582766 17.360906 15.753062 18.003906 15.289062 C 18.357906 15.034062 18.738141 14.902344 19.119141 14.902344 z M 26.617188 18.730469 L 27.990234 18.730469 C 28.157234 18.822469 28.720703 19.172219 28.720703 19.699219 C 28.719703 19.731219 28.689766 20.487188 28.009766 20.742188 L 26.617188 20.742188 L 26.617188 18.730469 z M 3.9902344 23.25 C 3.7382344 23.25 3.5263281 23.436359 3.4863281 23.693359 L 2.2285156 31.765625 C 2.1905156 32.006625 2.2590625 32.248641 2.4140625 32.431641 C 2.5620625 32.605641 2.7682813 32.701172 2.9882812 32.701172 C 3.0062812 32.701172 3.0259219 32.701219 3.0449219 32.699219 L 7.6328125 32.353516 L 8.0078125 30.148438 L 4.984375 30.148438 L 5.8925781 23.908203 C 5.9165781 23.746203 5.8705312 23.582031 5.7695312 23.457031 C 5.6645312 23.325031 5.5107031 23.25 5.3457031 23.25 L 3.9902344 23.25 z M 17.992188 23.4375 C 17.445187 23.444125 17.014469 23.478922 16.980469 23.482422 C 14.398469 23.667422 13.406141 26.234687 13.369141 27.929688 C 13.487141 31.141687 15.726375 31.566406 15.734375 31.566406 C 16.178375 31.694406 16.645906 31.757813 17.128906 31.757812 C 17.961906 31.757812 18.842328 31.5675 19.736328 31.1875 C 20.139328 30.9875 20.399063 30.581906 20.414062 30.128906 L 20.513672 27.330078 C 20.520672 27.116078 20.440922 26.907859 20.294922 26.755859 C 20.148922 26.601859 19.941516 26.511719 19.728516 26.511719 L 17.695312 26.517578 C 17.288312 26.517578 16.953969 26.826328 16.917969 27.236328 L 16.880859 27.667969 C 16.862859 27.868969 16.925641 28.071609 17.056641 28.224609 C 17.188641 28.377609 17.380078 28.471422 17.580078 28.482422 L 18.140625 28.511719 C 18.167625 28.512719 18.191031 28.525922 18.207031 28.544922 C 18.226031 28.566922 18.235422 28.595047 18.232422 28.623047 L 18.142578 29.441406 C 17.027578 29.815406 16.295578 29.235891 16.267578 29.212891 C 15.770578 28.782891 15.549109 28.127063 15.662109 27.414062 C 15.795109 26.576062 16.350219 25.837203 17.074219 25.533203 C 17.904219 25.185203 18.878578 25.485812 19.267578 25.632812 C 19.499578 25.714813 19.751078 25.678969 19.955078 25.542969 C 20.159078 25.407969 20.288547 25.190313 20.310547 24.945312 C 20.323547 24.801313 20.335031 24.651062 20.332031 24.539062 C 20.370031 24.120062 20.136031 23.731547 19.707031 23.560547 C 19.203031 23.451547 18.539188 23.430875 17.992188 23.4375 z M 43.546875 23.4375 C 43.074875 23.4785 42.794578 23.542219 42.392578 23.699219 C 40.970578 24.253219 40.992359 25.65725 41.193359 26.28125 C 41.334359 27.34025 42.888172 28.329141 42.951172 28.369141 C 43.428172 28.679141 44.962234 29.375766 44.990234 29.384766 C 45.156234 29.496766 45.420125 29.718125 45.328125 29.953125 C 45.241125 30.175125 44.904859 30.352734 44.630859 30.302734 C 43.641859 30.149734 43.033656 29.942547 42.722656 29.810547 C 42.534656 29.701547 42.302234 29.703406 42.115234 29.816406 C 41.929234 29.928406 41.819172 30.133516 41.826172 30.353516 C 41.838172 30.646516 41.851188 30.990187 41.867188 31.242188 C 41.880187 31.584187 42.091297 31.891344 42.404297 32.027344 L 42.404297 32.029297 C 43.346297 32.427297 44.238016 32.533203 44.916016 32.533203 C 45.644016 32.533203 46.129828 32.412391 46.173828 32.400391 C 47.520828 31.975391 47.881813 30.868516 47.882812 30.353516 C 47.980813 28.392516 46.312 27.522188 46.25 27.492188 L 45.890625 27.292969 C 44.996625 26.790969 44.203391 26.344547 43.900391 26.185547 C 43.678391 26.068547 43.549313 25.939422 43.570312 25.857422 C 43.614312 25.681422 44.071656 25.471844 44.472656 25.464844 C 45.636656 25.476844 46.406063 25.65425 46.414062 25.65625 L 46.654297 25.712891 L 47.060547 24.126953 C 47.099547 23.973953 47.066656 23.8135 46.972656 23.6875 C 46.877656 23.5615 46.732266 23.488375 46.572266 23.484375 L 43.546875 23.4375 z M 9.9667969 23.488281 C 9.5027969 23.488281 9.1021563 23.838781 9.0351562 24.300781 L 8.1210938 30.640625 C 8.0870937 30.873625 8.1575469 31.110063 8.3105469 31.289062 C 8.4635469 31.468062 8.6878281 31.572266 8.9238281 31.572266 L 12.509766 31.572266 C 12.913766 31.572266 13.255109 31.255656 13.287109 30.847656 L 13.316406 30.490234 C 13.335406 30.256234 13.254703 30.024516 13.095703 29.853516 C 12.938703 29.683516 12.719234 29.585938 12.490234 29.585938 L 12.480469 29.585938 L 10.919922 29.603516 C 10.876922 29.609516 10.776516 29.572578 10.728516 29.517578 C 10.678516 29.459578 10.654062 29.383594 10.664062 29.308594 L 10.742188 28.708984 C 10.759188 28.583984 10.862281 28.487422 10.988281 28.482422 L 12.587891 28.423828 C 12.952891 28.409828 13.255969 28.123812 13.292969 27.757812 L 13.353516 27.173828 C 13.372516 26.995828 13.314266 26.818547 13.197266 26.685547 C 13.080266 26.551547 12.910469 26.47175 12.730469 26.46875 L 11.318359 26.451172 C 11.254359 26.450172 11.193391 26.421094 11.150391 26.371094 C 11.107391 26.321094 11.08675 26.256453 11.09375 26.189453 L 11.152344 25.65625 C 11.164344 25.54725 11.254328 25.464844 11.361328 25.464844 L 13.044922 25.464844 C 13.418922 25.464844 13.727625 25.182594 13.765625 24.808594 L 13.818359 24.273438 C 13.839359 24.074437 13.774625 23.875609 13.640625 23.724609 C 13.506625 23.575609 13.315234 23.488281 13.115234 23.488281 L 9.9667969 23.488281 z M 22.089844 23.488281 C 21.598844 23.488281 21.190687 23.890766 21.179688 24.384766 L 21.044922 30.53125 C 21.039922 30.77225 21.132828 31.009687 21.298828 31.179688 C 21.465828 31.353687 21.698453 31.453125 21.939453 31.453125 L 25.298828 31.453125 C 25.753828 31.453125 26.123047 31.079094 26.123047 30.621094 L 26.123047 30.246094 C 26.124047 29.811094 25.782656 29.459219 25.347656 29.449219 L 23.4375 29.410156 C 23.3555 29.409156 23.289062 29.338906 23.289062 29.253906 L 23.289062 28.521484 C 23.289062 28.458484 23.340391 28.405297 23.400391 28.404297 L 24.876953 28.386719 C 25.097953 28.385719 25.313797 28.291859 25.466797 28.130859 C 25.618797 27.971859 25.702266 27.752203 25.697266 27.533203 L 25.691406 27.189453 C 25.683406 26.746453 25.316953 26.384766 24.876953 26.384766 L 23.572266 26.384766 C 23.464266 26.384766 23.376953 26.294594 23.376953 26.183594 L 23.376953 25.457031 C 23.376953 25.371031 23.444344 25.302734 23.527344 25.302734 L 25.201172 25.302734 C 25.384172 25.302734 25.5575 25.230609 25.6875 25.099609 C 25.8135 24.971609 25.886719 24.793281 25.886719 24.613281 L 25.886719 24.179688 C 25.886719 23.994688 25.815547 23.823406 25.685547 23.691406 C 25.555547 23.561406 25.381219 23.488281 25.199219 23.488281 L 22.089844 23.488281 z M 32.226562 23.488281 C 31.998562 23.488281 31.776141 23.584953 31.619141 23.751953 C 31.463141 23.917953 31.379625 24.143094 31.390625 24.371094 L 31.548828 27.683594 L 28.771484 23.808594 C 28.627484 23.608594 28.394438 23.490234 28.148438 23.490234 L 27.271484 23.490234 C 26.769484 23.490234 26.361328 23.902203 26.361328 24.408203 L 26.361328 30.605469 C 26.361328 31.074469 26.739125 31.455078 27.203125 31.455078 L 27.830078 31.455078 C 28.033078 31.455078 28.230047 31.372609 28.373047 31.224609 C 28.514047 31.078609 28.593891 30.876875 28.587891 30.671875 L 28.478516 26.863281 L 31.705078 31.455078 L 32.876953 31.455078 C 33.142953 31.455078 33.399031 31.345391 33.582031 31.150391 C 33.765031 30.957391 33.862609 30.692781 33.849609 30.425781 L 33.554688 24.310547 C 33.532687 23.850547 33.156219 23.488281 32.699219 23.488281 L 32.226562 23.488281 z M 35.082031 23.488281 C 34.807031 23.488281 34.543422 23.612125 34.357422 23.828125 C 34.177422 24.039125 34.088328 24.322516 34.111328 24.603516 L 34.59375 30.488281 C 34.63875 31.039281 35.067797 31.455078 35.591797 31.455078 L 38.722656 31.447266 C 40.595656 30.968266 41.053359 29.368547 41.068359 29.310547 C 41.670359 27.432547 40.830391 25.76325 40.775391 25.65625 C 39.776391 23.64125 37.680172 23.494281 37.576172 23.488281 L 35.082031 23.488281 z M 36.589844 25.464844 L 37.466797 25.464844 C 37.711797 25.583844 38.868016 26.21925 38.916016 27.65625 C 38.923016 27.70825 39.084234 28.913234 37.990234 29.490234 L 36.771484 29.490234 C 36.730083 29.489242 36.691454 29.446948 36.6875 29.392578 L 36.414062 25.6875 C 36.410063 25.6265 36.428797 25.567437 36.466797 25.523438 C 36.498797 25.486438 36.543844 25.464844 36.589844 25.464844 z M 12.037109 32.679688 C 11.870109 32.679688 11.712422 32.756719 11.607422 32.886719 C 11.413422 33.127719 11.086219 33.532422 10.824219 33.857422 C 10.593219 34.143422 10.610281 34.558219 10.863281 34.824219 C 11.207281 35.184219 11.661812 35.660531 11.882812 35.894531 C 11.967813 35.984531 12.084031 36.035156 12.207031 36.035156 C 14.428031 36.030156 35.093859 35.980609 37.630859 35.974609 C 37.793859 35.974609 37.951406 35.910922 38.066406 35.794922 C 38.303406 35.558922 38.729641 35.134594 39.056641 34.808594 C 39.312641 34.553594 39.331562 34.144234 39.101562 33.865234 C 38.829563 33.535234 38.488062 33.119906 38.289062 32.878906 C 38.186062 32.753906 38.032141 32.679687 37.869141 32.679688 L 12.037109 32.679688 z M 25.957031 33.287109 L 26.923828 33.320312 C 27.179828 33.328313 27.410188 33.352922 27.617188 33.419922 C 27.793187 33.475922 27.918141 33.563641 27.994141 33.681641 C 28.035141 33.744641 28.056641 33.81925 28.056641 33.90625 C 28.056641 34.04825 27.979172 34.163047 27.826172 34.248047 C 27.762172 34.284047 27.687562 34.311078 27.601562 34.330078 C 27.745562 34.357078 27.86875 34.411234 27.96875 34.490234 C 28.03475 34.544234 28.082234 34.614219 28.115234 34.699219 C 28.131234 34.743219 28.140625 34.793656 28.140625 34.847656 C 28.140625 34.981656 28.089328 35.0945 27.986328 35.1875 C 27.906328 35.2605 27.793484 35.319281 27.646484 35.363281 C 27.481484 35.413281 27.317297 35.4375 27.154297 35.4375 L 25.951172 35.4375 L 25.957031 33.287109 z M 23.142578 33.296875 C 23.428578 33.296875 23.670141 33.345312 23.869141 33.445312 C 24.068141 33.544312 24.169922 33.664688 24.169922 33.804688 L 24.169922 34.046875 L 23.496094 34.046875 L 23.496094 33.798828 C 23.496094 33.747828 23.459719 33.703969 23.386719 33.667969 C 23.313719 33.631969 23.224094 33.613281 23.121094 33.613281 C 23.018094 33.613281 22.932375 33.631969 22.859375 33.667969 C 22.787375 33.703969 22.751953 33.747828 22.751953 33.798828 L 22.751953 34.957031 C 22.751953 35.008031 22.787375 35.050937 22.859375 35.085938 C 22.931375 35.120937 23.018094 35.138672 23.121094 35.138672 C 23.224094 35.138672 23.313719 35.120937 23.386719 35.085938 C 23.459719 35.050938 23.496094 35.008031 23.496094 34.957031 L 23.496094 34.539062 L 23.136719 34.539062 L 23.136719 34.21875 L 24.169922 34.21875 L 24.169922 34.958984 C 24.169922 35.099984 24.068188 35.218406 23.867188 35.316406 C 23.664187 35.415406 23.421625 35.464844 23.140625 35.464844 C 22.854625 35.464844 22.612109 35.415406 22.412109 35.316406 C 22.212109 35.217406 22.111328 35.098938 22.111328 34.960938 L 22.111328 33.804688 C 22.111328 33.663688 22.213063 33.544312 22.414062 33.445312 C 22.615063 33.346313 22.858578 33.296875 23.142578 33.296875 z M 35.314453 33.296875 C 35.600453 33.296875 35.843969 33.345312 36.042969 33.445312 C 36.241969 33.544312 36.341797 33.664688 36.341797 33.804688 L 36.341797 34.046875 L 35.667969 34.046875 L 35.667969 33.798828 C 35.667969 33.747828 35.631594 33.703969 35.558594 33.667969 C 35.485594 33.631969 35.397922 33.613281 35.294922 33.613281 C 35.191922 33.613281 35.10425 33.631969 35.03125 33.667969 C 34.95925 33.703969 34.923828 33.747828 34.923828 33.798828 L 34.923828 34.957031 C 34.923828 35.008031 34.95925 35.050937 35.03125 35.085938 C 35.10325 35.120937 35.191922 35.138672 35.294922 35.138672 C 35.397922 35.138672 35.485594 35.120937 35.558594 35.085938 C 35.631594 35.050938 35.667969 35.008031 35.667969 34.957031 L 35.667969 34.539062 L 35.306641 34.539062 L 35.306641 34.21875 L 36.339844 34.21875 L 36.339844 34.958984 C 36.339844 35.099984 36.238109 35.218406 36.037109 35.316406 C 35.836109 35.414406 35.5945 35.464844 35.3125 35.464844 C 35.0265 35.464844 34.783984 35.415406 34.583984 35.316406 C 34.383984 35.217406 34.283203 35.098938 34.283203 34.960938 L 34.283203 33.804688 C 34.283203 33.663688 34.384938 33.544312 34.585938 33.445312 C 34.786938 33.346313 35.030453 33.296875 35.314453 33.296875 z M 13.779297 33.318359 L 14.751953 33.318359 C 15.007953 33.318359 15.237359 33.352922 15.443359 33.419922 C 15.619359 33.475922 15.746266 33.563641 15.822266 33.681641 C 15.863266 33.744641 15.884766 33.81925 15.884766 33.90625 C 15.884766 34.04825 15.807297 34.161094 15.654297 34.246094 C 15.590297 34.282094 15.514734 34.311078 15.427734 34.330078 C 15.571734 34.357078 15.694922 34.411234 15.794922 34.490234 C 15.860922 34.544234 15.909406 34.614219 15.941406 34.699219 C 15.957406 34.743219 15.966797 34.791703 15.966797 34.845703 C 15.966797 34.979703 15.9155 35.0945 15.8125 35.1875 C 15.7325 35.2605 15.619656 35.319281 15.472656 35.363281 C 15.307656 35.413281 15.142469 35.4375 14.980469 35.4375 L 13.779297 35.4375 L 13.779297 33.318359 z M 19.302734 33.318359 L 20.03125 33.318359 L 20.892578 34.742188 L 20.892578 33.318359 L 21.541016 33.318359 L 21.541016 35.4375 L 20.84375 35.4375 L 19.951172 34.080078 L 19.951172 35.4375 L 19.302734 35.4375 L 19.302734 33.318359 z M 31.474609 33.318359 L 32.203125 33.318359 L 33.064453 34.742188 L 33.064453 33.318359 L 33.714844 33.318359 L 33.714844 35.4375 L 33.017578 35.4375 L 32.123047 34.080078 L 32.123047 35.4375 L 31.474609 35.4375 L 31.474609 33.318359 z M 17.142578 33.320312 L 18.035156 33.320312 L 18.755859 35.4375 L 18.074219 35.4375 L 17.921875 34.951172 L 17.246094 34.951172 L 17.087891 35.4375 L 16.412109 35.4375 L 17.142578 33.320312 z M 29.314453 33.320312 L 30.207031 33.320312 L 30.927734 35.4375 L 30.246094 35.4375 L 30.09375 34.951172 L 29.417969 34.951172 L 29.259766 35.4375 L 28.583984 35.4375 L 29.314453 33.320312 z M 14.480469 33.642578 L 14.480469 34.183594 L 14.751953 34.183594 C 14.952953 34.183594 15.08725 34.136063 15.15625 34.039062 C 15.18125 34.003062 15.193359 33.957297 15.193359 33.904297 C 15.193359 33.816297 15.1505 33.750078 15.0625 33.705078 C 14.9825 33.663078 14.879953 33.642578 14.751953 33.642578 L 14.480469 33.642578 z M 26.652344 33.642578 L 26.652344 34.183594 L 26.923828 34.183594 C 27.124828 34.183594 27.259125 34.136063 27.328125 34.039062 C 27.353125 34.003062 27.365234 33.957297 27.365234 33.904297 C 27.365234 33.816297 27.322328 33.750078 27.236328 33.705078 C 27.156328 33.663078 27.051828 33.642578 26.923828 33.642578 L 26.652344 33.642578 z M 17.587891 33.804688 L 17.347656 34.640625 L 17.828125 34.640625 L 17.587891 33.804688 z M 29.759766 33.804688 L 29.519531 34.640625 L 30 34.640625 L 29.759766 33.804688 z M 14.480469 34.490234 L 14.480469 35.121094 L 14.751953 35.121094 C 14.971953 35.121094 15.122031 35.066078 15.207031 34.955078 C 15.237031 34.917078 15.253906 34.872266 15.253906 34.822266 C 15.253906 34.704266 15.206234 34.619453 15.115234 34.564453 C 15.033234 34.515453 14.911953 34.490234 14.751953 34.490234 L 14.480469 34.490234 z M 26.652344 34.490234 L 26.652344 35.121094 L 26.923828 35.121094 C 27.143828 35.121094 27.295859 35.066078 27.380859 34.955078 C 27.410859 34.917078 27.425781 34.872266 27.425781 34.822266 C 27.425781 34.704266 27.378109 34.619453 27.287109 34.564453 C 27.205109 34.515453 27.083828 34.490234 26.923828 34.490234 L 26.652344 34.490234 z"/></svg>